<mxfile host="app.diagrams.net" modified="2024-05-17T10:21:41.697Z" agent="Mozilla/5.0 (Macintosh; Intel Mac OS X 10_15_7) AppleWebKit/605.1.15 (KHTML, like Gecko) Version/17.3 Safari/605.1.15" version="24.4.3" etag="Sl33S7S8bVBDcvGahvi4" type="github">
  <diagram name="Page-1" id="XiEJCUWeXeQEktwUtwR5">
    <mxGraphModel>
      <root>
        <mxCell id="0" />
        <mxCell id="1" parent="0" />
      </root>
    </mxGraphModel>
  </diagram>
</mxfile>
